<svg width="218" height="42" viewBox="0 0 218 42" fill="none" xmlns="http://www.w3.org/2000/svg">
<path d="M16.4085 15.9862C17.5396 15.9862 18.1051 15.6 18.1051 14.8276V12.1379C18.1051 11.3655 17.5396 10.9793 16.4085 10.9793H13.2223V15.9862H16.4085ZM17.2775 18.3034L22.9879 26H18.8085L13.2223 18.469V26H9.24992V8.66207H17.2361C18.5603 8.66207 19.6913 8.93793 20.6292 9.48965C21.5947 10.0414 22.0775 10.8 22.0775 11.7655V15.2C22.0775 16.1655 21.6085 16.9241 20.6706 17.4759C19.7327 18.0276 18.6016 18.3034 17.2775 18.3034ZM29.6801 19.5862H35.6801L32.7008 11.8897L29.6801 19.5862ZM35.556 8.66207L41.887 26H37.9146L36.4664 21.9034H28.8939L27.487 26H23.5146L29.8043 8.66207H35.556ZM46.7402 8.66207L51.1264 14.6207L55.554 8.66207H59.5264L53.1126 17.3103V26H49.1402V17.3103L42.7678 8.66207H46.7402ZM71.0302 26V18.0552H65.113V26H61.1405V8.66207H65.113V15.7379H71.0302V8.66207H75.044V26H71.0302ZM83.1176 19.5862H89.1176L86.1383 11.8897L83.1176 19.5862ZM88.9935 8.66207L95.3245 26H91.3521L89.9039 21.9034H82.3314L80.9245 26H76.9521L83.2418 8.66207H88.9935ZM97.2812 26V8.66207H101.378L107.585 19.2552V8.70345H111.598V26H107.419L101.254 15.5724V26H97.2812ZM129.243 19.5862H135.243L132.263 11.8897L129.243 19.5862ZM135.119 8.66207L141.45 26H137.477L136.029 21.9034H128.456L127.05 26H123.077L129.367 8.66207H135.119ZM153.296 26V18.0552H147.379V26H143.406V8.66207H147.379V15.7379H153.296V8.66207H157.31V26H153.296ZM160.211 26V8.66207H164.307L169.232 18.9655L174.197 8.66207H178.252V26H174.238V17.1862L171.342 23.269H167.163L164.183 17.1448V26H160.211ZM193.216 26H181.34V8.66207H193.216V10.9793H185.312V15.6138H191.519V17.931H185.312V23.6828H193.216V26ZM203.299 23.6828C204.43 23.6828 204.996 23.2966 204.996 22.5241V12.1379C204.996 11.3655 204.43 10.9793 203.299 10.9793H200.113V23.6828H203.299ZM204.127 8.66207C205.451 8.66207 206.582 8.93793 207.52 9.48965C208.485 10.0414 208.968 10.8 208.968 11.7655V22.8966C208.968 23.8621 208.472 24.6207 207.478 25.1724C206.568 25.7241 205.451 26 204.127 26H196.141V8.66207H204.127Z" fill="white"/>
<path d="M11.966 39L9.57535 30.2727H10.385L12.3623 37.777H12.4305L14.4077 30.2727H15.3282L17.3055 37.777H17.3736L19.3509 30.2727H20.1648L17.7742 39H16.9219L14.8978 31.598H14.8424L12.8182 39H11.966ZM24.6821 30.2727V39H23.8852V30.2727H24.6821ZM29.2824 39V30.2727H30.0792V38.2841H34.2383V39H29.2824ZM40.8692 39H38.3124V30.2727H41.0226C41.855 30.2727 42.5666 30.446 43.1575 30.7926C43.7513 31.1392 44.2058 31.6364 44.5212 32.2841C44.8365 32.9318 44.9942 33.7088 44.9942 34.6151C44.9942 35.5298 44.8323 36.3153 44.5084 36.9716C44.1874 37.625 43.7186 38.1264 43.1021 38.4759C42.4885 38.8253 41.7442 39 40.8692 39ZM39.1092 38.2841H40.8223C41.5723 38.2841 42.2002 38.1364 42.7058 37.8409C43.2115 37.5455 43.5908 37.1236 43.8436 36.5753C44.0965 36.027 44.2229 35.3736 44.2229 34.6151C44.22 33.8622 44.095 33.2145 43.8479 32.6719C43.6036 32.1293 43.2399 31.7131 42.757 31.4233C42.2769 31.1335 41.6831 30.9886 40.9757 30.9886H39.1092V38.2841ZM49.2056 39V30.2727H50.0025V38.2841H54.1616V39H49.2056ZM59.0325 30.2727V39H58.2357V30.2727H59.0325ZM63.6328 39V30.2727H68.6826V30.9886H64.4297V34.2741H68.2862V34.9901H64.4297V39H63.6328ZM72.9441 39V30.2727H78.0066V30.9886H73.741V34.2741H77.7381V34.9901H73.741V38.2841H78.0918V39H72.9441ZM88.0041 39V30.2727H90.8208C91.4402 30.2727 91.9572 30.392 92.372 30.6307C92.7896 30.8665 93.1035 31.1875 93.3137 31.5938C93.5268 32 93.6333 32.4574 93.6333 32.9659C93.6333 33.4744 93.5282 33.9332 93.318 34.3423C93.1078 34.7486 92.7953 35.071 92.3805 35.3097C91.9657 35.5455 91.4501 35.6634 90.8336 35.6634H88.6177V34.9474H90.8123C91.2697 34.9474 91.649 34.8622 91.9501 34.6918C92.2512 34.5185 92.4757 34.2827 92.6234 33.9844C92.774 33.6861 92.8493 33.3466 92.8493 32.9659C92.8493 32.5852 92.774 32.2457 92.6234 31.9474C92.4757 31.6491 92.2498 31.4148 91.9458 31.2443C91.6447 31.0739 91.2626 30.9886 90.7995 30.9886H88.801V39H88.0041ZM97.7841 39V30.2727H98.581V34.2741H103.533V30.2727H104.33V39H103.533V34.9901H98.581V39H97.7841ZM116.078 34.6364C116.078 35.5455 115.916 36.3366 115.592 37.0099C115.269 37.6804 114.823 38.2003 114.254 38.5696C113.689 38.9361 113.039 39.1193 112.303 39.1193C111.567 39.1193 110.915 38.9361 110.347 38.5696C109.781 38.2003 109.337 37.6804 109.013 37.0099C108.692 36.3366 108.531 35.5455 108.531 34.6364C108.531 33.7273 108.692 32.9375 109.013 32.267C109.337 31.5937 109.783 31.0739 110.351 30.7074C110.919 30.3381 111.57 30.1534 112.303 30.1534C113.039 30.1534 113.689 30.3381 114.254 30.7074C114.823 31.0739 115.269 31.5937 115.592 32.267C115.916 32.9375 116.078 33.7273 116.078 34.6364ZM115.303 34.6364C115.303 33.8551 115.172 33.1861 114.911 32.6293C114.649 32.0696 114.293 31.642 113.841 31.3466C113.389 31.0511 112.877 30.9034 112.303 30.9034C111.732 30.9034 111.22 31.0511 110.769 31.3466C110.317 31.642 109.959 32.0682 109.695 32.625C109.433 33.1818 109.303 33.8523 109.303 34.6364C109.303 35.4176 109.433 36.0866 109.695 36.6435C109.956 37.2003 110.313 37.6278 110.764 37.9261C111.216 38.2216 111.729 38.3693 112.303 38.3693C112.877 38.3693 113.389 38.2216 113.841 37.9261C114.296 37.6307 114.654 37.2045 114.915 36.6477C115.176 36.0881 115.306 35.4176 115.303 34.6364ZM119.394 30.9886V30.2727H125.722V30.9886H122.956V39H122.159V30.9886H119.394ZM136.588 34.6364C136.588 35.5455 136.426 36.3366 136.102 37.0099C135.778 37.6804 135.332 38.2003 134.764 38.5696C134.198 38.9361 133.548 39.1193 132.812 39.1193C132.076 39.1193 131.424 38.9361 130.856 38.5696C130.291 38.2003 129.846 37.6804 129.522 37.0099C129.201 36.3366 129.041 35.5455 129.041 34.6364C129.041 33.7273 129.201 32.9375 129.522 32.267C129.846 31.5937 130.292 31.0739 130.86 30.7074C131.428 30.3381 132.079 30.1534 132.812 30.1534C133.548 30.1534 134.198 30.3381 134.764 30.7074C135.332 31.0739 135.778 31.5937 136.102 32.267C136.426 32.9375 136.588 33.7273 136.588 34.6364ZM135.812 34.6364C135.812 33.8551 135.681 33.1861 135.42 32.6293C135.159 32.0696 134.802 31.642 134.35 31.3466C133.899 31.0511 133.386 30.9034 132.812 30.9034C132.241 30.9034 131.73 31.0511 131.278 31.3466C130.826 31.642 130.468 32.0682 130.204 32.625C129.943 33.1818 129.812 33.8523 129.812 34.6364C129.812 35.4176 129.943 36.0866 130.204 36.6435C130.465 37.2003 130.822 37.6278 131.274 37.9261C131.725 38.2216 132.238 38.3693 132.812 38.3693C133.386 38.3693 133.899 38.2216 134.35 37.9261C134.805 37.6307 135.163 37.2045 135.424 36.6477C135.686 36.0881 135.815 35.4176 135.812 34.6364ZM146.833 33C146.754 32.7102 146.637 32.4389 146.484 32.1861C146.33 31.9304 146.14 31.7074 145.913 31.517C145.688 31.3239 145.428 31.1733 145.133 31.0653C144.84 30.9574 144.513 30.9034 144.153 30.9034C143.584 30.9034 143.076 31.0511 142.627 31.3466C142.178 31.642 141.823 32.0682 141.562 32.625C141.303 33.1818 141.174 33.8523 141.174 34.6364C141.174 35.4176 141.305 36.0866 141.566 36.6435C141.827 37.2003 142.185 37.6278 142.64 37.9261C143.097 38.2216 143.62 38.3693 144.208 38.3693C144.745 38.3693 145.219 38.25 145.631 38.0114C146.043 37.7727 146.364 37.4318 146.594 36.9886C146.827 36.5455 146.941 36.0185 146.935 35.4077L147.191 35.4886H144.396V34.7727H147.711V35.4886C147.711 36.233 147.56 36.8764 147.259 37.419C146.958 37.9616 146.545 38.3807 146.019 38.6761C145.494 38.9716 144.89 39.1193 144.208 39.1193C143.447 39.1193 142.781 38.9361 142.209 38.5696C141.638 38.2003 141.194 37.6804 140.876 37.0099C140.56 36.3366 140.403 35.5455 140.403 34.6364C140.403 33.9517 140.494 33.3338 140.675 32.7827C140.857 32.2315 141.114 31.7599 141.447 31.3679C141.782 30.9759 142.178 30.6761 142.636 30.4688C143.093 30.2585 143.599 30.1534 144.153 30.1534C144.63 30.1534 145.066 30.2287 145.461 30.3793C145.859 30.5298 146.208 30.7372 146.509 31.0014C146.813 31.2628 147.062 31.5653 147.255 31.9091C147.451 32.25 147.583 32.6136 147.651 33H146.833ZM151.969 39V30.2727H154.786C155.405 30.2727 155.922 30.3849 156.337 30.6094C156.755 30.831 157.069 31.1392 157.279 31.5341C157.492 31.9261 157.599 32.3764 157.599 32.8849C157.599 33.3935 157.492 33.8423 157.279 34.2315C157.069 34.6207 156.756 34.9247 156.341 35.1435C155.927 35.3622 155.412 35.4716 154.799 35.4716H152.4V34.7429H154.777C155.232 34.7429 155.61 34.6676 155.911 34.517C156.215 34.3665 156.441 34.152 156.589 33.8736C156.739 33.5952 156.814 33.2656 156.814 32.8849C156.814 32.5043 156.739 32.1719 156.589 31.8878C156.438 31.6009 156.211 31.3793 155.907 31.223C155.606 31.0668 155.225 30.9886 154.765 30.9886H152.766V39H151.969ZM155.817 35.0625L157.965 39H157.045L154.918 35.0625H155.817ZM161.832 39H160.997L164.172 30.2727H165.024L168.199 39H167.364L164.628 31.3082H164.568L161.832 39ZM162.433 35.6548H166.763V36.3707H162.433V35.6548ZM171.975 39V30.2727H174.791C175.411 30.2727 175.928 30.392 176.342 30.6307C176.76 30.8665 177.074 31.1875 177.284 31.5938C177.497 32 177.604 32.4574 177.604 32.9659C177.604 33.4744 177.499 33.9332 177.288 34.3423C177.078 34.7486 176.766 35.071 176.351 35.3097C175.936 35.5455 175.421 35.6634 174.804 35.6634H172.588V34.9474H174.783C175.24 34.9474 175.619 34.8622 175.921 34.6918C176.222 34.5185 176.446 34.2827 176.594 33.9844C176.744 33.6861 176.82 33.3466 176.82 32.9659C176.82 32.5852 176.744 32.2457 176.594 31.9474C176.446 31.6491 176.22 31.4148 175.916 31.2443C175.615 31.0739 175.233 30.9886 174.77 30.9886H172.771V39H171.975ZM181.755 39V30.2727H182.551V34.2741H187.503V30.2727H188.3V39H187.503V34.9901H182.551V39H181.755ZM192.894 39V30.2727H197.956V30.9886H193.691V34.2741H197.688V34.9901H193.691V38.2841H198.042V39H192.894ZM202.299 39V30.2727H205.116C205.735 30.2727 206.252 30.3849 206.667 30.6094C207.084 30.831 207.398 31.1392 207.609 31.5341C207.822 31.9261 207.928 32.3764 207.928 32.8849C207.928 33.3935 207.822 33.8423 207.609 34.2315C207.398 34.6207 207.086 34.9247 206.671 35.1435C206.256 35.3622 205.742 35.4716 205.128 35.4716H202.729V34.7429H205.107C205.562 34.7429 205.94 34.6676 206.241 34.517C206.545 34.3665 206.771 34.152 206.918 33.8736C207.069 33.5952 207.144 33.2656 207.144 32.8849C207.144 32.5043 207.069 32.1719 206.918 31.8878C206.768 31.6009 206.54 31.3793 206.236 31.223C205.935 31.0668 205.555 30.9886 205.094 30.9886H203.096V39H202.299ZM206.147 35.0625L208.295 39H207.374L205.248 35.0625H206.147Z" fill="#FDFDFD"/>
</svg>
